HIERARCHY
ROOT Hips
{
	OFFSET 0.00000 0.00000 0.00000
	CHANNELS 6 Xposition Yposition Zposition Zrotation Yrotation Xrotation 
	JOINT LHipJoint
	{
		OFFSET 0 0 0
		CHANNELS 3 Zrotation Yrotation Xrotation
		JOINT LeftHip
		{
			OFFSET 2.36090 -1.39315 1.24752
			CHANNELS 3 Zrotation Yrotation Xrotation
			JOINT LeftKnee
			{
				OFFSET 2.06810 -5.68207 0.00000
				CHANNELS 3 Zrotation Yrotation Xrotation
				JOINT LeftAnkle
				{
					OFFSET 2.46631 -6.77613 0.00000
					CHANNELS 3 Zrotation Yrotation Xrotation
					JOINT LeftToe
					{
						OFFSET 0.26031 -0.71520 1.99545
						CHANNELS 3 Zrotation Yrotation Xrotation
						End Site
						{
							OFFSET 0.00000 -0.00000 1.05957
						}
					}
				}
			}
		}
	}
	JOINT RHipJoint
	{
		OFFSET 0 0 0
		CHANNELS 3 Zrotation Yrotation Xrotation
		JOINT RightHip
		{
			OFFSET -2.25243 -1.39315 1.24752
			CHANNELS 3 Zrotation Yrotation Xrotation
			JOINT RightKnee
			{
				OFFSET -2.17343 -5.97145 0.00000
				CHANNELS 3 Zrotation Yrotation Xrotation
				JOINT RightAnkle
				{
					OFFSET -2.52372 -6.93386 0.00000
					CHANNELS 3 Zrotation Yrotation Xrotation
					JOINT RightToe
					{
						OFFSET -0.22538 -0.61923 2.11447
						CHANNELS 3 Zrotation Yrotation Xrotation
						End Site
						{
							OFFSET -0.00000 -0.00000 1.10506
						}
					}
				}
			}
		}
	}
	JOINT lowerback
	{
		OFFSET 0 0 0
		CHANNELS 3 Zrotation Yrotation Xrotation
		JOINT Chest
		{
			OFFSET 0.01594 2.13103 0.08007
			CHANNELS 3 Zrotation Yrotation Xrotation
			JOINT Chest2
			{
				OFFSET 0.01393 2.09723 0.18338
				CHANNELS 3 Zrotation Yrotation Xrotation
				JOINT lowerneck
				{
					OFFSET 0 0 0
					CHANNELS 3 Zrotation Yrotation Xrotation
					JOINT Neck
					{
						OFFSET 0.05351 1.38915 0.32494
						CHANNELS 3 Zrotation Yrotation Xrotation
						JOINT Head
						{
							OFFSET 0.00711 1.45992 -0.21666
							CHANNELS 3 Zrotation Yrotation Xrotation
							End Site
							{
								OFFSET -0.00433 1.47702 -0.11056
							}
						}
					}
				}
				JOINT LeftCollar
				{
					OFFSET 0 0 0
					CHANNELS 3 Zrotation Yrotation Xrotation
					JOINT LeftShoulder
					{
						OFFSET 2.87198 0.92249 0.11132
CHANNELS 3 Zrotation Xrotation Yrotation
						JOINT LeftElbow
						{
OFFSET 0 -5.527310 0.000000
CHANNELS 3 Zrotation Xrotation Yrotation
							JOINT LeftWrist
							{
OFFSET 0 -3.110590 0.000000
CHANNELS 3 Zrotation Xrotation Yrotation
								JOINT lhand
								{
									OFFSET 0 0 0
CHANNELS 3 Zrotation Xrotation Yrotation
									JOINT LFingers
									{
OFFSET 0 -0.419630 0.000000
CHANNELS 3 Zrotation Xrotation Yrotation
										End Site
										{
OFFSET 0 -0.338310 0.000000
										}
									}
								}
								JOINT LThumb
								{
OFFSET 0 0.000000 0.000000
CHANNELS 3 Zrotation Xrotation Yrotation
									End Site
									{
OFFSET 0 -0.343480 0.343480
									}
								}
							}
						}
					}
				}
				JOINT RightCollar
				{
					OFFSET 0 0 0
					CHANNELS 3 Zrotation Yrotation Xrotation
					JOINT RightShoulder
					{
						OFFSET -2.94710 0.68072 0.32187
CHANNELS 3 Zrotation Xrotation Yrotation
						JOINT RightElbow
						{
OFFSET 0 -5.253960 -0.000000
CHANNELS 3 Zrotation Xrotation Yrotation
							JOINT RightWrist
							{
OFFSET 0 -3.105670 0.000000
CHANNELS 3 Zrotation Xrotation Yrotation
								JOINT rhand
								{
									OFFSET 0 0 0
CHANNELS 3 Zrotation Xrotation Yrotation
									JOINT RFingers
									{
OFFSET 0 -0.498680 0.000000
CHANNELS 3 Zrotation Xrotation Yrotation
										End Site
										{
OFFSET 0 -0.402040 0.000000
										}
									}
								}
								JOINT RThumb
								{
OFFSET 0 0.000000 0.000000
CHANNELS 3 Zrotation Xrotation Yrotation
									End Site
									{
OFFSET 0 -0.408180 0.408180
									}
								}
							}
						}
					}
				}
			}
		}
	}
}
MOTION
Frames: 9
Frame Time: 0.008333333333333333
1.763900 2.569700 16.213400 112.927000 -3.659900 -72.261100 0.000000 0.000000 0.000000 -29.105500 -9.062400 -59.501000 14.268000 19.193300 73.021200 0.521200 1.517900 13.198300 0.060100 1.581500 4.350300 0.000000 0.000000 0.000000 18.181700 26.769200 -69.392500 -35.412500 -12.903600 140.991400 -0.192900 -7.366600 -14.028500 -0.319300 -3.632200 10.044300 -1.044600 -0.252900 -3.457900 1.004300 -0.484300 -7.123000 1.641500 -0.248300 -5.421900 17.632200 9.225800 -14.846700 -24.628100 15.076200 21.725700 -10.256900 5.843400 13.352800 0.000000 0.000000 0.000000 -16.313700 -35.406300 -72.918500 143.988400 -45.521100 104.469200 51.694300 -46.872200 16.474600 0.000000 0.000000 0.000000 -7.125000 0.000000 0.000000 15.045100 5.197400 14.127100 0.000000 0.000000 0.000000 -220.249100 -39.883000 -174.575700 -152.558600 -38.596900 -110.226800 -7.420900 -35.395600 18.573200 0.000000 0.000000 0.000000 7.125000 0.000000 -0.000000 19.820300 47.667700 -1.355100
1.750754 2.565324 16.207328 113.176539 -3.535740 -72.215762 0.000000 0.000000 0.000000 -29.384771 -8.821613 -59.577168 14.182657 19.168542 72.761474 0.521806 2.537410 13.011487 0.009029 0.604346 1.660772 0.000000 0.000000 0.000000 18.086447 26.777528 -69.380422 -35.423421 -12.890504 141.039953 -0.206167 -7.375711 -14.240928 -0.361658 -3.863196 10.692172 -1.449281 -0.339408 -3.431485 1.003861 -0.602589 -7.195888 1.870551 -0.285650 -5.508473 18.463521 9.618837 -14.754249 -24.614844 15.491905 21.656545 -10.314405 6.131874 13.503726 0.000000 0.000000 0.000000 -20.023043 -38.154631 -73.694775 144.309091 -45.299194 104.697641 47.084577 -39.203633 12.411854 0.000000 0.000000 0.000000 -7.125000 0.000000 0.000000 13.224831 12.411470 10.361957 0.000000 0.000000 0.000000 -220.163093 -39.006976 -175.141385 -152.831829 -38.339105 -110.396778 -5.352508 -36.033528 18.325425 0.000000 0.000000 0.000000 7.125000 0.000000 0.000000 21.583380 47.158990 -1.203439
1.734674 2.561926 16.196941 113.464820 -3.499604 -72.131535 0.000000 0.000000 0.000000 -29.588992 -8.530858 -59.766411 14.121081 19.150370 72.573868 0.503014 3.559921 12.654852 0.001982 -0.270687 -0.743847 0.000000 0.000000 0.000000 17.999869 26.756085 -69.347100 -35.426492 -12.886841 141.053825 -0.220952 -7.334966 -14.418869 -0.406112 -4.090981 11.332766 -1.656836 -0.367853 -3.473697 0.895680 -0.648646 -7.258597 1.875359 -0.301949 -5.549378 19.583465 9.800787 -14.380866 -25.001305 15.553551 21.059100 -10.646456 6.273505 13.359878 0.000000 0.000000 0.000000 -23.421985 -40.362651 -74.821444 144.515512 -45.155044 104.844116 42.885197 -33.482156 10.333753 0.000000 0.000000 0.000000 -7.125000 0.000000 0.000000 10.927198 16.165562 7.596392 0.000000 0.000000 0.000000 -219.832160 -39.017984 -175.608930 -152.943235 -38.233272 -110.465749 -3.147395 -37.004238 17.419779 0.000000 0.000000 0.000000 7.125000 0.000000 0.000000 23.158569 46.039039 -0.626665
1.717288 2.557717 16.188839 113.783230 -3.493394 -72.032970 0.000000 0.000000 0.000000 -29.833730 -8.178089 -59.964403 14.057448 19.131388 72.379833 0.470844 4.544305 12.208333 0.026118 -1.038137 -2.853844 0.000000 0.000000 0.000000 17.927671 26.800479 -69.345505 -35.403672 -12.914278 140.951609 -0.235834 -7.311000 -14.613517 -0.451157 -4.309099 11.947980 -1.858446 -0.486872 -3.510166 0.904555 -0.806190 -7.265016 1.999153 -0.369275 -5.526966 20.211840 9.957251 -14.203070 -25.268682 15.614269 20.329010 -10.806880 6.362204 13.142719 0.000000 0.000000 0.000000 -26.473737 -42.203468 -75.904305 144.418445 -45.222970 104.775257 37.909683 -28.399475 10.755173 0.000000 0.000000 0.000000 -7.125000 0.000000 0.000000 7.504969 16.517817 5.105207 0.000000 0.000000 0.000000 -219.847221 -38.591533 -176.131804 -152.977441 -38.200698 -110.486909 -1.293462 -37.727003 16.632079 0.000000 0.000000 0.000000 7.125000 0.000000 0.000000 24.444877 45.093076 -0.059427
1.701359 2.550874 16.183733 114.127419 -3.437908 -71.958197 0.000000 0.000000 0.000000 -30.246072 -7.693357 -60.103554 13.982913 19.108885 72.152309 0.430813 5.307602 11.718468 0.093833 -1.972182 -5.429023 0.000000 0.000000 0.000000 17.839525 26.888330 -69.346928 -35.393626 -12.926293 140.906929 -0.251486 -7.318535 -14.848189 -0.492413 -4.499151 12.485440 -2.184128 -0.751885 -3.491975 1.106525 -1.146614 -7.247415 2.395594 -0.513275 -5.494832 20.373247 10.241341 -14.205686 -25.696358 16.028988 19.692028 -10.884130 6.540449 13.093218 0.000000 0.000000 0.000000 -28.819016 -44.129267 -76.630711 144.269374 -45.326827 104.669365 33.140756 -23.805711 12.478152 0.000000 0.000000 0.000000 -7.125000 0.000000 0.000000 4.028294 15.201232 2.837633 0.000000 0.000000 0.000000 -220.601392 -37.493317 -176.733786 -152.807729 -38.361937 -110.381764 0.076654 -38.025165 16.210125 0.000000 0.000000 0.000000 7.125000 0.000000 0.000000 25.447131 44.549547 0.303451
1.687066 2.541251 16.183291 114.496182 -3.319132 -71.832467 0.000000 0.000000 0.000000 -30.800477 -7.148712 -60.334044 13.949173 19.098524 72.049128 0.386015 5.713541 11.159586 0.277864 -3.389819 -9.366043 0.000000 0.000000 0.000000 17.679221 27.055986 -69.500077 -35.390437 -12.930156 140.892563 -0.263250 -7.384070 -15.081160 -0.537972 -4.699421 13.053318 -2.448339 -0.908582 -3.597927 1.119819 -1.352315 -7.247751 2.557389 -0.602303 -5.419147 20.461209 10.391313 -14.355741 -25.950602 16.222299 19.350816 -10.941768 6.609086 13.096371 0.000000 0.000000 0.000000 -29.353139 -45.496466 -76.884151 144.573667 -45.114166 104.885415 31.297765 -21.548259 13.065255 0.000000 0.000000 0.000000 -7.125000 0.000000 0.000000 2.708045 14.797226 1.928807 0.000000 0.000000 0.000000 -220.749276 -36.734112 -177.002118 -152.726209 -38.439004 -110.331130 1.227704 -38.782302 16.224282 0.000000 0.000000 0.000000 7.125000 0.000000 0.000000 26.436068 44.428849 0.402113
1.674588 2.529888 16.187134 114.872462 -3.203795 -71.742075 0.000000 0.000000 0.000000 -31.386751 -6.542580 -60.533985 13.947200 19.097933 72.043123 0.335631 5.663857 10.449406 0.653845 -5.167713 -14.388492 0.000000 0.000000 0.000000 17.496779 27.242641 -69.700764 -35.384589 -12.937211 140.866256 -0.274034 -7.463215 -15.312478 -0.585280 -4.898465 13.619194 -2.677244 -0.957044 -3.778031 1.155970 -1.406955 -7.137525 2.717321 -0.620032 -5.192064 20.127175 10.453668 -14.834152 -26.094053 16.313215 19.112177 -10.891485 6.574763 13.120735 0.000000 0.000000 0.000000 -28.088590 -45.834525 -76.102485 145.038655 -44.784540 105.213904 32.201052 -21.802922 12.395807 0.000000 0.000000 0.000000 -7.125000 0.000000 0.000000 3.397950 15.437045 2.375025 0.000000 0.000000 0.000000 -220.865020 -35.996820 -176.785112 -152.581723 -38.575132 -110.241216 2.214457 -39.434219 16.031796 0.000000 0.000000 0.000000 7.125000 0.000000 0.000000 27.189539 44.143172 0.623821
1.664264 2.517505 16.191689 115.253152 -3.126943 -71.692971 0.000000 0.000000 0.000000 -31.936659 -5.871132 -60.677027 13.950528 19.098943 72.053483 0.281749 5.493751 9.620080 1.187243 -6.911402 -19.454469 0.000000 0.000000 0.000000 17.303679 27.374587 -69.889049 -35.412275 -12.903962 140.990070 -0.279915 -7.582258 -15.513994 -0.636712 -5.105105 14.208705 -2.902906 -0.900795 -4.021337 1.227435 -1.317438 -6.975263 2.909629 -0.567765 -4.883735 19.630248 10.476473 -15.413488 -26.162984 16.381579 19.025141 -10.793515 6.511517 13.192555 0.000000 0.000000 0.000000 -26.703173 -45.326998 -75.185299 145.537038 -44.424759 105.563844 33.050730 -22.258928 12.144378 0.000000 0.000000 0.000000 -7.125000 0.000000 0.000000 4.006751 15.604787 2.788158 0.000000 0.000000 0.000000 -221.027994 -35.451317 -176.375399 -152.367034 -38.776172 -110.106989 3.163083 -39.666832 15.526648 0.000000 0.000000 0.000000 7.125000 0.000000 0.000000 27.768278 43.586311 1.056319
1.654911 2.505762 16.195671 115.643432 -3.090595 -71.647343 0.000000 0.000000 0.000000 -32.393137 -5.219431 -60.795261 13.936332 19.094585 72.009909 0.244069 5.813673 9.091646 1.631307 -8.050686 -22.868749 0.000000 0.000000 0.000000 17.125981 27.478419 -70.089851 -35.448213 -12.860606 141.151225 -0.282315 -7.722353 -15.689438 -0.690366 -5.311816 14.800065 -3.113119 -0.818832 -4.317454 1.236751 -1.197748 -6.867350 3.029842 -0.504507 -4.608596 19.590828 10.497582 -15.586092 -26.277416 16.421075 18.987083 -10.826133 6.503389 13.241189 0.000000 0.000000 0.000000 -25.993620 -44.999459 -74.729439 146.058545 -44.041219 105.927632 33.380018 -22.146219 11.921324 0.000000 0.000000 0.000000 -7.125000 0.000000 0.000000 4.258301 15.817408 2.944642 0.000000 0.000000 0.000000 -221.073291 -35.374402 -176.326956 -152.371681 -38.771823 -110.109901 3.785492 -40.047159 15.529441 0.000000 0.000000 0.000000 7.125000 0.000000 0.000000 28.289212 43.519105 1.131274
